# xmcd
#
# Track frame offsets: 
#        150
#        11024
#        24587
#        38824
#        51030
#        66784
#        78080
#        90452
#        119836
#        132320
#        144554
#        163198
#        182608
#        194988
#        208945
#        226158
#        238736
#        251994
#        280525
#        292045
#
# Disc length: 4090 seconds
#
# Revision: 0
# Processed by: cddbd v1.5.2PL0 Copyright (c) Steve Scherf et al.
# Submitted via: ExactAudioCopy v0.99pb4
#
DISCID=2c0ff814
DTITLE=Memphis Slim - Blues Greats
DYEAR=2011
DGENRE=Blues
TTITLE0=Havin' Fun
TTITLE1=Slim's Blues
TTITLE2=Messin' Around
TTITLE3=When I Was Young
TTITLE4=Beer Drinking Woman
TTITLE5=Blue Evening
TTITLE6=Blues For My Baby
TTITLE7=Churnin' Man Blues
TTITLE8=Drivin' Me Mad
TTITLE9=For A Day
TTITLE10=Frankie and Johnny Boogie
TTITLE11=Highway 51 Blues
TTITLE12=Mother Earth
TTITLE13=Motherless
TTITLE14=Raining The Blues
TTITLE15=Rock Me Baby
TTITLE16=The Question
TTITLE17=When Buddy Comes To Town
TTITLE18=Built For Comfort
TTITLE19=You're The One
EXTD=
EXTT0=
EXTT1=
EXTT2=
EXTT3=
EXTT4=
EXTT5=
EXTT6=
EXTT7=
EXTT8=
EXTT9=
EXTT10=
EXTT11=
EXTT12=
EXTT13=
EXTT14=
EXTT15=
EXTT16=
EXTT17=
EXTT18=
EXTT19=
PLAYORDER=
